<?xml version="1.0" standalone="no"?>
<!DOCTYPE svg PUBLIC "-//W3C//DTD SVG 20010904//EN"
 "http://www.w3.org/TR/2001/REC-SVG-20010904/DTD/svg10.dtd">
<svg version="1.0" xmlns="http://www.w3.org/2000/svg"
 width="982.000000pt" height="982.000000pt" viewBox="0 0 982.000000 982.000000"
 preserveAspectRatio="xMidYMid meet">
<metadata>
Created by potrace 1.14, written by Peter Selinger 2001-2017
</metadata>
<g transform="translate(0.000000,982.000000) scale(0.100000,-0.100000)"
fill="#000000" stroke="none">
<path d="M4778 9315 c-2 -2 -21 -6 -43 -9 -35 -4 -56 -8 -115 -21 -8 -2 -17
-4 -20 -5 -3 -1 -8 -2 -12 -1 -4 0 -43 -13 -85 -30 -43 -17 -82 -32 -88 -33
-5 -1 -21 -8 -35 -15 -86 -46 -136 -75 -140 -80 -3 -3 -25 -19 -49 -35 -48
-31 -205 -183 -236 -230 -11 -16 -30 -41 -42 -56 -13 -15 -23 -31 -23 -36 0
-4 -6 -15 -14 -23 -7 -9 -25 -36 -38 -61 -14 -25 -48 -85 -77 -134 -28 -49
-51 -90 -51 -91 0 -1 -25 -44 -55 -94 -30 -51 -55 -96 -55 -101 0 -6 -4 -10
-10 -10 -5 0 -10 -7 -10 -15 0 -8 -5 -15 -11 -15 -5 0 -8 -4 -4 -9 3 -5 -2
-16 -10 -24 -8 -9 -15 -18 -15 -21 0 -3 -18 -35 -40 -71 -22 -36 -40 -67 -40
-69 0 -3 -27 -50 -60 -106 -33 -56 -60 -106 -60 -111 0 -5 -4 -9 -9 -9 -5 0
-11 -8 -14 -17 -3 -10 -20 -40 -36 -68 -17 -27 -34 -57 -38 -65 -12 -22 -91
-160 -113 -195 -17 -28 -37 -63 -86 -155 -11 -19 -21 -37 -24 -40 -3 -3 -10
-14 -16 -25 -6 -11 -62 -108 -124 -215 -62 -107 -121 -208 -130 -225 -9 -16
-29 -50 -44 -75 -15 -25 -29 -53 -33 -62 -3 -10 -9 -18 -14 -18 -5 0 -9 -4 -9
-9 0 -9 -52 -100 -271 -479 -49 -84 -89 -155 -89 -157 0 -3 -16 -29 -35 -59
-19 -30 -35 -59 -35 -65 0 -5 -5 -11 -11 -13 -5 -2 -11 -11 -13 -20 -1 -9 -9
-25 -17 -35 -7 -10 -19 -27 -25 -38 -26 -48 -67 -119 -148 -259 -47 -82 -86
-153 -86 -158 0 -4 -4 -8 -9 -8 -5 0 -11 -8 -15 -17 -3 -10 -21 -45 -41 -78
-19 -33 -43 -76 -52 -95 -10 -19 -20 -37 -23 -40 -11 -10 -160 -272 -160 -281
0 -5 -4 -9 -9 -9 -5 0 -11 -10 -15 -23 -3 -13 -15 -34 -26 -47 -11 -13 -20
-29 -20 -37 0 -7 -4 -13 -10 -13 -5 0 -10 -5 -10 -10 0 -9 -127 -235 -168
-300 -9 -14 -17 -27 -17 -30 0 -3 -8 -16 -17 -30 -35 -55 -88 -152 -88 -161 0
-5 -4 -9 -10 -9 -5 0 -10 -4 -10 -9 0 -5 -19 -42 -43 -83 -24 -40 -55 -93 -69
-118 -42 -75 -100 -174 -116 -200 -9 -14 -17 -27 -17 -30 0 -3 -14 -27 -30
-55 -17 -27 -37 -62 -45 -76 -8 -14 -53 -92 -100 -173 -47 -81 -94 -164 -105
-184 -11 -20 -23 -38 -27 -40 -5 -2 -8 -8 -8 -13 0 -5 -11 -26 -23 -47 -13
-20 -36 -59 -52 -87 -63 -114 -119 -210 -125 -215 -4 -3 -9 -10 -11 -15 -4
-11 -132 -238 -149 -265 -5 -8 -27 -44 -47 -80 -21 -36 -48 -83 -61 -105 -63
-109 -125 -255 -154 -362 -28 -109 -31 -131 -31 -283 -1 -91 2 -176 5 -190 3
-14 9 -43 13 -65 3 -22 9 -47 12 -55 3 -8 8 -23 10 -33 7 -40 85 -227 103
-250 11 -14 20 -28 20 -31 0 -7 45 -76 89 -137 50 -70 188 -199 273 -257 42
-29 81 -52 87 -52 5 0 11 -3 13 -7 8 -20 242 -113 284 -113 6 0 19 17 30 38
10 20 22 39 25 42 3 3 21 34 40 70 19 36 37 67 40 70 3 3 21 34 40 70 19 36
37 67 40 70 3 3 25 41 50 85 24 44 48 88 54 97 5 9 20 34 31 55 12 21 32 56
44 78 13 22 40 69 60 105 20 36 74 130 120 210 46 80 91 159 100 175 9 17 54
95 100 175 46 80 90 159 98 175 9 17 18 32 21 35 4 3 18 26 31 53 14 26 28 47
32 47 5 0 8 9 8 20 0 11 5 20 10 20 6 0 10 4 10 9 0 12 83 155 92 159 5 2 8 8
8 13 0 5 30 59 66 121 36 62 69 120 74 128 4 8 27 46 49 83 23 38 41 70 41 73
0 6 93 167 100 174 3 3 12 19 20 35 8 17 17 32 20 35 3 3 16 25 29 50 13 25
29 52 36 60 7 8 22 37 35 63 12 26 27 53 34 60 6 7 19 28 28 47 18 38 50 92
58 100 3 3 12 19 21 35 8 17 57 102 109 190 51 88 101 176 112 195 82 143 225
392 245 422 12 21 23 39 23 42 0 2 25 45 55 95 30 51 55 94 55 97 0 2 12 23
27 47 14 23 25 43 22 43 -2 1 3 10 12 20 9 11 30 44 46 74 17 30 54 96 83 145
83 141 98 168 112 195 7 14 15 27 18 30 4 4 18 28 64 115 6 11 13 22 16 25 5
5 14 20 58 99 14 25 29 48 34 49 4 2 8 9 8 14 0 6 25 54 55 105 30 52 55 98
55 104 0 5 5 9 10 9 6 0 10 4 10 9 0 5 38 74 85 155 47 80 85 148 85 150 0 3
14 25 30 49 17 25 30 49 30 54 0 6 11 23 24 38 14 16 23 32 20 36 -2 4 1 13 8
21 16 17 56 84 71 121 6 15 15 27 19 27 4 0 8 4 8 9 0 5 27 56 61 113 34 57
71 121 83 143 58 103 180 314 202 348 13 20 21 37 17 37 -5 0 -3 4 2 8 9 6 85
128 85 137 0 2 26 47 58 102 32 54 62 105 65 113 4 8 20 35 35 60 15 25 38 64
52 88 14 23 31 42 39 42 8 0 12 -3 9 -6 -3 -3 24 -56 59 -117 36 -62 75 -128
85 -147 34 -58 152 -264 165 -285 7 -11 15 -27 19 -35 4 -8 17 -31 29 -50 19
-30 54 -93 99 -175 6 -11 14 -22 17 -25 3 -3 25 -41 49 -85 24 -44 47 -81 52
-83 4 -2 8 -7 8 -12 0 -4 32 -64 71 -132 39 -67 83 -143 97 -168 14 -25 71
-124 127 -220 56 -96 105 -182 109 -190 4 -8 17 -32 29 -52 12 -20 89 -153
171 -295 82 -142 156 -269 165 -283 8 -14 21 -34 27 -45 6 -11 24 -42 39 -70
16 -27 36 -64 46 -82 10 -17 29 -49 42 -70 13 -21 26 -45 30 -53 4 -8 18 -33
32 -55 14 -22 28 -48 31 -57 4 -10 10 -18 15 -18 5 0 8 -3 7 -7 -2 -8 45 -94
66 -122 5 -7 11 -19 12 -26 1 -8 11 -24 23 -36 12 -13 21 -27 21 -31 0 -5 38
-74 85 -154 47 -80 85 -147 85 -149 0 -3 15 -28 33 -57 19 -29 47 -78 64 -108
34 -63 198 -348 213 -370 6 -8 13 -23 16 -32 4 -10 10 -18 15 -18 5 0 9 -4 9
-10 0 -5 41 -80 91 -167 50 -87 103 -178 117 -203 13 -25 28 -49 32 -55 4 -5
25 -41 45 -80 21 -38 47 -81 57 -94 10 -13 18 -28 18 -34 0 -6 6 -18 14 -26 7
-9 26 -41 42 -71 16 -30 32 -56 37 -58 4 -2 7 -8 7 -13 0 -5 11 -26 23 -47 13
-20 35 -57 49 -82 14 -25 34 -61 45 -80 11 -19 29 -51 39 -70 11 -19 22 -37
25 -40 3 -3 14 -21 24 -40 9 -19 24 -43 33 -52 8 -10 12 -18 8 -18 -4 0 7 -20
24 -44 16 -25 30 -47 30 -49 0 -3 18 -36 40 -73 22 -38 40 -71 40 -75 0 -3
-1122 -6 -2492 -7 -1371 0 -2501 -1 -2510 -1 -10 -1 -18 -6 -18 -12 0 -7 -15
-44 -34 -83 -19 -39 -43 -91 -54 -116 -11 -25 -30 -67 -42 -95 -13 -27 -24
-52 -25 -55 0 -3 -11 -25 -22 -50 -78 -165 -105 -226 -107 -235 -1 -5 -14 -34
-29 -62 -15 -29 -27 -55 -27 -58 0 -3 -16 -37 -34 -77 -53 -117 -85 -186 -133
-293 -25 -55 -50 -106 -55 -112 -6 -7 -8 -13 -5 -13 3 0 -7 -27 -24 -59 -16
-33 -29 -62 -29 -65 0 -3 -16 -38 -35 -77 -19 -40 -35 -74 -35 -76 0 -7 6437
3 6475 10 133 25 248 62 335 106 60 31 134 73 156 90 12 9 32 23 44 31 12 8
43 34 68 57 26 24 50 43 55 43 4 0 7 4 7 9 0 4 19 28 43 52 24 25 58 67 77 94
18 28 36 52 39 55 15 13 113 200 105 200 -4 0 1 11 10 25 9 14 14 25 11 25 -3
0 1 14 10 30 9 17 13 30 9 30 -4 0 -1 7 6 15 7 8 10 15 6 15 -3 0 -1 12 4 26
6 14 12 42 16 62 3 20 8 55 12 77 7 42 9 241 3 310 -4 47 -38 202 -51 230 -5
11 -23 56 -41 100 -18 44 -41 91 -51 104 -10 13 -18 28 -18 32 0 7 -58 110
-90 159 -6 8 -15 26 -22 40 -7 14 -17 32 -24 40 -11 14 -48 80 -90 160 -11 19
-21 37 -24 40 -3 3 -11 16 -19 30 -8 14 -54 94 -103 179 -48 84 -88 157 -88
162 0 5 -4 9 -10 9 -5 0 -10 7 -10 15 0 8 -5 15 -11 15 -5 0 -8 4 -4 9 3 5 1
12 -4 15 -5 4 -22 31 -37 61 -16 30 -32 55 -36 55 -4 0 -8 5 -8 11 0 6 -24 52
-54 102 -29 51 -63 108 -74 127 -45 79 -136 237 -152 265 -115 199 -172 298
-194 335 -15 25 -29 53 -33 63 -3 9 -10 17 -15 17 -5 0 -6 5 -3 10 3 6 1 10
-4 10 -6 0 -11 5 -11 11 0 6 -8 23 -19 37 -10 15 -31 51 -47 80 -16 29 -39 69
-51 90 -13 20 -27 46 -33 57 -6 11 -23 41 -38 67 -15 25 -45 77 -66 115 -21
37 -59 101 -82 140 -24 40 -44 77 -44 83 0 5 -4 10 -10 10 -5 0 -10 5 -10 10
0 6 -63 119 -140 251 -77 132 -140 243 -140 245 0 3 -16 30 -35 60 -19 30 -35
56 -35 59 0 2 -25 45 -55 95 -30 50 -55 95 -55 100 0 6 -4 10 -10 10 -5 0 -10
5 -10 12 0 6 -22 49 -50 95 -27 46 -50 88 -50 93 0 6 -4 10 -10 10 -5 0 -10 4
-10 9 0 9 -53 106 -88 161 -9 14 -15 28 -14 33 1 4 -3 7 -8 7 -6 0 -10 5 -10
10 0 6 -11 27 -23 48 -13 20 -35 58 -49 83 -46 82 -53 94 -64 109 -7 8 -26 42
-44 75 -17 33 -49 89 -71 125 -22 36 -42 73 -45 83 -4 9 -11 17 -17 17 -6 0
-8 3 -5 6 3 3 -18 46 -48 95 -30 49 -54 92 -54 95 0 3 -13 24 -28 47 -15 23
-34 56 -42 72 -8 17 -17 32 -20 35 -3 3 -16 25 -29 50 -13 25 -30 52 -38 61
-7 9 -10 19 -6 22 3 4 1 7 -5 7 -7 0 -12 4 -12 9 0 5 -26 53 -58 108 -32 54
-61 105 -65 113 -4 8 -16 29 -27 45 -11 17 -23 37 -27 45 -4 8 -42 75 -85 149
-43 73 -78 135 -78 136 0 2 -22 40 -50 84 -27 45 -46 81 -43 81 3 0 -1 8 -9
18 -16 18 -42 63 -91 152 -16 30 -36 62 -43 71 -8 8 -14 23 -14 32 0 9 -4 17
-10 17 -5 0 -19 23 -32 50 -13 28 -26 50 -30 50 -5 0 -8 6 -8 14 0 8 -6 21
-12 28 -11 11 -23 31 -72 123 -6 11 -13 22 -16 25 -6 6 -20 31 -63 110 -17 30
-34 57 -39 58 -4 2 -8 8 -8 13 0 31 -152 205 -245 281 -33 26 -66 53 -73 59
-32 26 -153 91 -217 118 -113 46 -111 45 -147 54 -7 2 -22 6 -33 10 -11 3 -36
8 -55 11 -19 3 -46 8 -60 12 -26 6 -316 14 -322 9z"/>
</g>
</svg>
