<svg id="Layer_1" data-name="Layer 1" xmlns="http://www.w3.org/2000/svg" xmlns:xlink="http://www.w3.org/1999/xlink" viewBox="0 0 982 882.74"><defs><style>.cls-1{stroke-linecap:round;stroke-linejoin:round;stroke-width:0;fill:url(#linear-gradient);stroke:url(#linear-gradient-2);}.cls-2{fill:url(#linear-gradient-3);}.cls-3{fill:url(#linear-gradient-4);}</style><linearGradient id="linear-gradient" x1="-27.38" y1="833.64" x2="540.64" y2="265.62" gradientUnits="userSpaceOnUse"><stop offset="0" stop-color="#fff"/><stop offset="0" stop-color="#31c5f0"/><stop offset="1" stop-color="#3572ed"/></linearGradient><linearGradient id="linear-gradient-2" x1="21" y1="553.76" x2="511.99" y2="553.76" gradientUnits="userSpaceOnUse"><stop offset="0" stop-color="#fff"/><stop offset="0" stop-color="#31c5f0"/><stop offset="1" stop-color="#339eef"/><stop offset="1"/></linearGradient><linearGradient id="linear-gradient-3" x1="605.8" y1="740.45" x2="768.06" y2="134.87" gradientUnits="userSpaceOnUse"><stop offset="0" stop-color="#fff"/><stop offset="0" stop-color="#31c5f0"/><stop offset="0.01" stop-color="#3572ed"/><stop offset="1" stop-color="#31c5f0"/></linearGradient><linearGradient id="linear-gradient-4" x1="864.17" y1="639.4" x2="401.53" y2="1102.03" gradientUnits="userSpaceOnUse"><stop offset="0" stop-color="#fff"/><stop offset="0" stop-color="#31c5f0"/><stop offset="0.64" stop-color="#3572ed"/></linearGradient></defs><path class="cls-1" d="M512,257.49,199.3,799.1l-86,150.74C37.57,931.27-4.19,843,37.48,770.86L391.19,158.21c70.3-8.87,120.05,97.66,120.79,99.27Z" transform="translate(-21 -70.63)"/><path class="cls-2" d="M974.05,749.28C958.71,798.17,824.7,799.1,824.7,799.1L512,257.49h0c-.74-1.61-50.49-108.14-120.79-99.27l15.44-26.74c46.84-81.12,163.9-81.12,210.74,0Z" transform="translate(-21 -70.63)"/><path class="cls-3" d="M881.14,953.37H252.87L323,799.1H824.7s134-.93,149.35-49.82l12.47,21.58C1033.35,852,974.81,953.37,881.14,953.37Z" transform="translate(-21 -70.63)"/></svg>